<svg width="30" height="30" viewBox="0 0 37 37" fill="none" xmlns="http://www.w3.org/2000/svg">
<circle cx="18.5" cy="18.5" r="18.5" fill="url(#paint0_linear_39_171)"/>
<path d="M22.9742 18.3433C22.9742 17.8417 23.06 17.3765 23.2314 16.9477C23.4029 16.519 23.6452 16.1439 23.9581 15.8223C24.627 15.1406 25.5016 14.7998 26.582 14.7998C27.4952 14.7998 28.2284 15.102 28.7815 15.7066C29.326 16.2896 29.5982 17.0228 29.5982 17.9059C29.5982 18.2447 29.5724 18.4762 29.521 18.6005C29.0923 18.7206 28.2198 18.7806 26.9036 18.7806H24.6399C24.7513 19.2394 25.0107 19.5973 25.418 19.8546C25.8253 20.1076 26.3548 20.234 27.0065 20.234C27.6882 20.234 28.2734 20.1118 28.7621 19.8674C28.8908 19.8031 28.9872 19.7431 29.0515 19.6874C29.043 19.8674 29.0323 20.0518 29.0194 20.2405L28.9487 21.2437C28.6228 21.4666 28.0955 21.621 27.3666 21.7067C27.1522 21.7324 26.9465 21.7453 26.7492 21.7453C25.6602 21.7453 24.7599 21.4281 24.0482 20.7935C23.3322 20.1547 22.9742 19.338 22.9742 18.3433ZM27.8875 17.533C27.7118 16.6112 27.2101 16.1503 26.3827 16.1503C25.731 16.1503 25.2358 16.4311 24.8971 16.9928C24.7942 17.1643 24.7149 17.3529 24.6591 17.5587C24.762 17.563 24.8885 17.5673 25.0386 17.5716H25.5145C25.6731 17.5758 25.8253 17.578 25.9711 17.578H26.3376C26.5563 17.578 26.7707 17.5758 26.9807 17.5716L27.5081 17.5523C27.6496 17.548 27.7761 17.5415 27.8875 17.533Z" fill="white"/>
<path d="M7.39819 18.324C7.39819 17.8524 7.47752 17.4022 7.63611 16.9735C7.79906 16.5404 8.03057 16.1632 8.33069 15.8416C8.98665 15.1471 9.83772 14.7998 10.8838 14.7998C11.9257 14.7998 12.7531 15.1278 13.3662 15.7837C13.7282 16.1695 13.9786 16.6261 14.1175 17.1535H12.3495C12.2897 17.0405 12.2191 16.9354 12.1379 16.8384C11.8077 16.444 11.3554 16.2468 10.7809 16.2468C10.1978 16.2468 9.74122 16.4568 9.41111 16.877C9.111 17.2629 8.96091 17.7323 8.96091 18.2854C8.96091 18.5555 9.00593 18.8171 9.09597 19.07C9.18601 19.3229 9.31467 19.5395 9.48187 19.7195C9.83773 20.1097 10.305 20.3048 10.8838 20.3048C11.4197 20.3048 11.842 20.114 12.1508 19.7324C12.1971 19.6754 12.2399 19.6158 12.2791 19.5535H14.034C13.883 19.9823 13.6518 20.3657 13.3405 20.7035C12.7017 21.3981 11.8549 21.7453 10.8002 21.7453C9.71123 21.7453 8.85806 21.4045 8.24065 20.7228C7.67903 20.1011 7.39819 19.3015 7.39819 18.324Z" fill="white"/>
<path d="M15.72 14.9284H17.2827V15.5008C17.8486 15.0334 18.4532 14.7998 19.0963 14.7998C19.7994 14.7998 20.3611 15.0399 20.7812 15.5201C21.2014 15.996 21.4115 16.6241 21.4115 17.4044V19.9639C21.4115 20.6885 21.4222 21.1236 21.4436 21.2694C21.465 21.4152 21.4929 21.5095 21.5272 21.5524C21.5658 21.5953 21.5979 21.6338 21.6237 21.6681L21.6108 21.6939C21.2635 21.6639 21.0106 21.6489 20.8519 21.6489H20.4018C20.2646 21.6489 20.0802 21.6553 19.8487 21.6681V18.1632C19.8487 16.907 19.4671 16.2789 18.704 16.2789C18.138 16.2789 17.6643 16.5705 17.2827 17.1535H15.72V14.9284Z" fill="white"/>
<path d="M17.2827 20.8257C17.2827 21.203 17.2999 21.4773 17.3342 21.6489H15.72V19.5535H17.2827V20.8257Z" fill="white"/>
<path d="M17.8738 17.4583H11.5155C10.9568 17.4583 10.5039 17.8603 10.5039 18.3563C10.5039 18.8522 10.9568 19.2543 11.5155 19.2543H17.8738C18.4324 19.2543 18.8853 18.8522 18.8853 18.3563C18.8853 17.8603 18.4324 17.4583 17.8738 17.4583Z" fill="white"/>
<defs>
<linearGradient id="paint0_linear_39_171" x1="0" y1="0" x2="37" y2="37" gradientUnits="userSpaceOnUse">
<stop stop-color="#E100FF"/>
<stop offset="0.947917" stop-color="#7F00FF"/>
</linearGradient>
</defs>
</svg>
