<svg width="80" height="auto" viewBox="0 0 101 32" fill="none" xmlns="http://www.w3.org/2000/svg">
<path d="M70.3475 15.9617C70.3475 13.7021 70.7347 11.6068 71.509 9.67556C72.2837 7.74432 73.3777 6.05447 74.7912 4.60604C77.812 1.53535 81.762 0 86.6416 0C90.7661 0 94.0772 1.36152 96.5753 4.0846C99.0344 6.7111 100.264 10.0135 100.264 13.9918C100.264 15.5176 100.148 16.5604 99.9153 17.1205C97.9791 17.6612 94.0385 17.9317 88.0939 17.9317H77.8701C78.3736 19.9982 79.5451 21.6106 81.3846 22.7694C83.224 23.909 85.6155 24.4785 88.5587 24.4785C91.6375 24.4785 94.2805 23.9281 96.4879 22.8273C97.069 22.5377 97.5046 22.2672 97.795 22.0162C97.7563 22.8273 97.7079 23.6579 97.6498 24.5077L97.3305 29.0266C95.8588 30.0308 93.4769 30.7263 90.1853 31.1125C89.217 31.2282 88.2877 31.2861 87.3968 31.2861C82.4785 31.2861 78.4122 29.8572 75.1979 26.9989C71.9641 24.1212 70.3475 20.4423 70.3475 15.9617ZM92.5379 12.3117C91.7441 8.15954 89.4785 6.08344 85.7412 6.08344C82.7981 6.08344 80.5615 7.34842 79.0319 9.87835C78.5671 10.6508 78.2089 11.5006 77.9572 12.4277C78.422 12.4468 78.9933 12.4662 79.6709 12.4857H81.8201C82.5367 12.5048 83.224 12.5145 83.8824 12.5145H85.5379C86.5256 12.5145 87.4936 12.5048 88.4424 12.4857L90.8242 12.3985C91.4631 12.3794 92.0344 12.3503 92.5379 12.3117Z" fill="url(#paint0_linear_30_69)"/>
<path d="M0 15.8749C0 13.7504 0.358259 11.7227 1.07451 9.79143C1.81049 7.84087 2.85606 6.14136 4.2115 4.69292C7.1741 1.56432 11.0179 0 15.7423 0C20.4478 0 24.1848 1.4774 26.9538 4.43221C28.5888 6.16992 29.7199 8.2267 30.3472 10.6026H22.3621C22.0917 10.0933 21.7732 9.62013 21.4063 9.18308C19.9151 7.40634 17.8724 6.51796 15.2778 6.51796C12.6442 6.51796 10.582 7.46427 9.09112 9.35691C7.73568 11.095 7.05783 13.2097 7.05783 15.701C7.05783 16.9177 7.26117 18.0959 7.66782 19.2353C8.07448 20.3747 8.65554 21.3501 9.41072 22.161C11.0179 23.9184 13.1285 24.7973 15.7423 24.7973C18.1628 24.7973 20.0701 23.9378 21.4644 22.2189C21.6739 21.9623 21.8671 21.6937 22.0442 21.4132H29.9698C29.2878 23.3448 28.2438 25.0715 26.8378 26.5933C23.9525 29.722 20.1282 31.2861 15.3648 31.2861C10.4466 31.2861 6.59332 29.7509 3.80485 26.6801C1.26837 23.8799 0 20.2781 0 15.8749Z" fill="url(#paint1_linear_30_69)"/>
<path d="M37.5845 0.579364H44.6423V3.1576C47.1983 1.05253 49.9286 0 52.8331 0C56.0087 0 58.5455 1.0815 60.443 3.24451C62.3406 5.38819 63.2894 8.21746 63.2894 11.7324V23.2618C63.2894 26.5256 63.3378 28.4859 63.4346 29.1425C63.5314 29.7992 63.6574 30.2242 63.8123 30.4173C63.9864 30.6103 64.1316 30.784 64.2479 30.9385L64.1897 31.0545C62.6212 30.9194 61.4789 30.8517 60.7624 30.8517H58.7293C58.1096 30.8517 57.2771 30.8806 56.2315 30.9385V15.1506C56.2315 9.4921 54.5081 6.6628 51.0612 6.6628C48.5053 6.6628 46.3657 7.97605 44.6423 10.6026H37.5845V0.579364Z" fill="url(#paint2_linear_30_69)"/>
<path d="M44.6423 27.1437C44.6423 28.8432 44.7199 30.0791 44.8748 30.8517H37.5845V21.4132H44.6423V27.1437Z" fill="url(#paint3_linear_30_69)"/>
<path d="M47.2982 11.9746H18.5815C16.0584 11.9746 14.0129 13.7857 14.0129 16.0197C14.0129 18.2538 16.0584 20.0648 18.5815 20.0648H47.2982C49.8213 20.0648 51.8667 18.2538 51.8667 16.0197C51.8667 13.7857 49.8213 11.9746 47.2982 11.9746Z" fill="url(#paint4_linear_30_69)"/>
<defs>
<linearGradient id="paint0_linear_30_69" x1="2.70384" y1="8.09017" x2="100.023" y2="27.0634" gradientUnits="userSpaceOnUse">
<stop stop-color="#40C9FF"/>
<stop offset="1" stop-color="#E81CFF"/>
</linearGradient>
<linearGradient id="paint1_linear_30_69" x1="2.70384" y1="8.09017" x2="100.023" y2="27.0634" gradientUnits="userSpaceOnUse">
<stop stop-color="#40C9FF"/>
<stop offset="1" stop-color="#E81CFF"/>
</linearGradient>
<linearGradient id="paint2_linear_30_69" x1="2.70384" y1="8.09017" x2="100.023" y2="27.0634" gradientUnits="userSpaceOnUse">
<stop stop-color="#40C9FF"/>
<stop offset="1" stop-color="#E81CFF"/>
</linearGradient>
<linearGradient id="paint3_linear_30_69" x1="2.70384" y1="8.09017" x2="100.023" y2="27.0634" gradientUnits="userSpaceOnUse">
<stop stop-color="#40C9FF"/>
<stop offset="1" stop-color="#E81CFF"/>
</linearGradient>
<linearGradient id="paint4_linear_30_69" x1="2.70384" y1="8.09017" x2="100.023" y2="27.0634" gradientUnits="userSpaceOnUse">
<stop stop-color="#40C9FF"/>
<stop offset="1" stop-color="#E81CFF"/>
</linearGradient>
</defs>
</svg>
